<mxfile host="app.diagrams.net" agent="Mozilla/5.0 (Macintosh; Intel Mac OS X 10_15_7) AppleWebKit/537.36 (KHTML, like Gecko) Chrome/133.0.0.0 Safari/537.36" version="26.0.5">
  <diagram name="Page-1" id="whv0Lqn8vJE7FsYvo7cS">
    <mxGraphModel dx="1562" dy="911" grid="1" gridSize="10" guides="1" tooltips="1" connect="1" arrows="1" fold="1" page="1" pageScale="1" pageWidth="827" pageHeight="1169" math="0" shadow="0">
      <root>
        <mxCell id="0" />
        <mxCell id="1" parent="0" />
        <mxCell id="ODwOfyjfzbYag10OaSnU-12" value="" style="edgeStyle=none;curved=1;rounded=0;orthogonalLoop=1;jettySize=auto;html=1;fontSize=12;startSize=8;endSize=8;" edge="1" parent="1" source="ODwOfyjfzbYag10OaSnU-1" target="ODwOfyjfzbYag10OaSnU-4">
          <mxGeometry relative="1" as="geometry" />
        </mxCell>
        <mxCell id="ODwOfyjfzbYag10OaSnU-26" style="edgeStyle=none;curved=1;rounded=0;orthogonalLoop=1;jettySize=auto;html=1;exitX=0.5;exitY=0;exitDx=0;exitDy=0;entryX=0.5;entryY=1;entryDx=0;entryDy=0;fontSize=12;startSize=8;endSize=8;" edge="1" parent="1" source="ODwOfyjfzbYag10OaSnU-1" target="ODwOfyjfzbYag10OaSnU-21">
          <mxGeometry relative="1" as="geometry" />
        </mxCell>
        <mxCell id="ODwOfyjfzbYag10OaSnU-1" value="空间a" style="rounded=0;whiteSpace=wrap;html=1;" vertex="1" parent="1">
          <mxGeometry x="120" y="160" width="120" height="60" as="geometry" />
        </mxCell>
        <mxCell id="ODwOfyjfzbYag10OaSnU-13" value="" style="edgeStyle=none;curved=1;rounded=0;orthogonalLoop=1;jettySize=auto;html=1;fontSize=12;startSize=8;endSize=8;" edge="1" parent="1" source="ODwOfyjfzbYag10OaSnU-2" target="ODwOfyjfzbYag10OaSnU-5">
          <mxGeometry relative="1" as="geometry" />
        </mxCell>
        <mxCell id="ODwOfyjfzbYag10OaSnU-25" style="edgeStyle=none;curved=1;rounded=0;orthogonalLoop=1;jettySize=auto;html=1;exitX=0.5;exitY=0;exitDx=0;exitDy=0;entryX=0.5;entryY=1;entryDx=0;entryDy=0;fontSize=12;startSize=8;endSize=8;" edge="1" parent="1" source="ODwOfyjfzbYag10OaSnU-2" target="ODwOfyjfzbYag10OaSnU-22">
          <mxGeometry relative="1" as="geometry" />
        </mxCell>
        <mxCell id="ODwOfyjfzbYag10OaSnU-2" value="空间b" style="rounded=0;whiteSpace=wrap;html=1;" vertex="1" parent="1">
          <mxGeometry x="320" y="160" width="120" height="60" as="geometry" />
        </mxCell>
        <mxCell id="ODwOfyjfzbYag10OaSnU-14" value="" style="edgeStyle=none;curved=1;rounded=0;orthogonalLoop=1;jettySize=auto;html=1;fontSize=12;startSize=8;endSize=8;" edge="1" parent="1" source="ODwOfyjfzbYag10OaSnU-3" target="ODwOfyjfzbYag10OaSnU-6">
          <mxGeometry relative="1" as="geometry" />
        </mxCell>
        <mxCell id="ODwOfyjfzbYag10OaSnU-15" style="edgeStyle=none;curved=1;rounded=0;orthogonalLoop=1;jettySize=auto;html=1;exitX=0.5;exitY=1;exitDx=0;exitDy=0;entryX=0.5;entryY=0;entryDx=0;entryDy=0;fontSize=12;startSize=8;endSize=8;" edge="1" parent="1" source="ODwOfyjfzbYag10OaSnU-3" target="ODwOfyjfzbYag10OaSnU-5">
          <mxGeometry relative="1" as="geometry" />
        </mxCell>
        <mxCell id="ODwOfyjfzbYag10OaSnU-24" style="edgeStyle=none;curved=1;rounded=0;orthogonalLoop=1;jettySize=auto;html=1;exitX=0.5;exitY=0;exitDx=0;exitDy=0;entryX=0.5;entryY=1;entryDx=0;entryDy=0;fontSize=12;startSize=8;endSize=8;" edge="1" parent="1" source="ODwOfyjfzbYag10OaSnU-3" target="ODwOfyjfzbYag10OaSnU-23">
          <mxGeometry relative="1" as="geometry" />
        </mxCell>
        <mxCell id="ODwOfyjfzbYag10OaSnU-3" value="空间c" style="rounded=0;whiteSpace=wrap;html=1;" vertex="1" parent="1">
          <mxGeometry x="520" y="160" width="120" height="60" as="geometry" />
        </mxCell>
        <mxCell id="ODwOfyjfzbYag10OaSnU-16" style="edgeStyle=none;curved=1;rounded=0;orthogonalLoop=1;jettySize=auto;html=1;exitX=0.5;exitY=1;exitDx=0;exitDy=0;entryX=0.5;entryY=0;entryDx=0;entryDy=0;fontSize=12;startSize=8;endSize=8;" edge="1" parent="1" source="ODwOfyjfzbYag10OaSnU-4" target="ODwOfyjfzbYag10OaSnU-7">
          <mxGeometry relative="1" as="geometry" />
        </mxCell>
        <mxCell id="ODwOfyjfzbYag10OaSnU-17" style="edgeStyle=none;curved=1;rounded=0;orthogonalLoop=1;jettySize=auto;html=1;exitX=0.5;exitY=1;exitDx=0;exitDy=0;entryX=0.5;entryY=0;entryDx=0;entryDy=0;fontSize=12;startSize=8;endSize=8;" edge="1" parent="1" source="ODwOfyjfzbYag10OaSnU-4" target="ODwOfyjfzbYag10OaSnU-8">
          <mxGeometry relative="1" as="geometry" />
        </mxCell>
        <mxCell id="ODwOfyjfzbYag10OaSnU-4" value="资源组a" style="rounded=0;whiteSpace=wrap;html=1;" vertex="1" parent="1">
          <mxGeometry x="120" y="320" width="120" height="60" as="geometry" />
        </mxCell>
        <mxCell id="ODwOfyjfzbYag10OaSnU-18" style="edgeStyle=none;curved=1;rounded=0;orthogonalLoop=1;jettySize=auto;html=1;exitX=0.5;exitY=1;exitDx=0;exitDy=0;entryX=0.5;entryY=0;entryDx=0;entryDy=0;fontSize=12;startSize=8;endSize=8;" edge="1" parent="1" source="ODwOfyjfzbYag10OaSnU-5" target="ODwOfyjfzbYag10OaSnU-8">
          <mxGeometry relative="1" as="geometry" />
        </mxCell>
        <mxCell id="ODwOfyjfzbYag10OaSnU-19" style="edgeStyle=none;curved=1;rounded=0;orthogonalLoop=1;jettySize=auto;html=1;exitX=0.5;exitY=1;exitDx=0;exitDy=0;entryX=0.5;entryY=0;entryDx=0;entryDy=0;fontSize=12;startSize=8;endSize=8;" edge="1" parent="1" source="ODwOfyjfzbYag10OaSnU-5" target="ODwOfyjfzbYag10OaSnU-10">
          <mxGeometry relative="1" as="geometry" />
        </mxCell>
        <mxCell id="ODwOfyjfzbYag10OaSnU-5" value="资源组b" style="rounded=0;whiteSpace=wrap;html=1;" vertex="1" parent="1">
          <mxGeometry x="320" y="320" width="120" height="60" as="geometry" />
        </mxCell>
        <mxCell id="ODwOfyjfzbYag10OaSnU-20" style="edgeStyle=none;curved=1;rounded=0;orthogonalLoop=1;jettySize=auto;html=1;exitX=0.5;exitY=1;exitDx=0;exitDy=0;entryX=0.5;entryY=0;entryDx=0;entryDy=0;fontSize=12;startSize=8;endSize=8;" edge="1" parent="1" source="ODwOfyjfzbYag10OaSnU-6" target="ODwOfyjfzbYag10OaSnU-11">
          <mxGeometry relative="1" as="geometry" />
        </mxCell>
        <mxCell id="ODwOfyjfzbYag10OaSnU-6" value="资源组c" style="rounded=0;whiteSpace=wrap;html=1;" vertex="1" parent="1">
          <mxGeometry x="520" y="320" width="120" height="60" as="geometry" />
        </mxCell>
        <mxCell id="ODwOfyjfzbYag10OaSnU-7" value="资源1&lt;br&gt;(节点、存储)" style="rounded=0;whiteSpace=wrap;html=1;" vertex="1" parent="1">
          <mxGeometry x="80" y="480" width="80" height="40" as="geometry" />
        </mxCell>
        <mxCell id="ODwOfyjfzbYag10OaSnU-8" value="资源2&lt;br&gt;(节点、存储)" style="rounded=0;whiteSpace=wrap;html=1;" vertex="1" parent="1">
          <mxGeometry x="240" y="480" width="80" height="40" as="geometry" />
        </mxCell>
        <mxCell id="ODwOfyjfzbYag10OaSnU-10" value="资源3&lt;br&gt;(节点、存储)" style="rounded=0;whiteSpace=wrap;html=1;" vertex="1" parent="1">
          <mxGeometry x="440" y="480" width="80" height="40" as="geometry" />
        </mxCell>
        <mxCell id="ODwOfyjfzbYag10OaSnU-11" value="资源3&lt;br&gt;(节点、存储)" style="rounded=0;whiteSpace=wrap;html=1;" vertex="1" parent="1">
          <mxGeometry x="600" y="480" width="80" height="40" as="geometry" />
        </mxCell>
        <mxCell id="ODwOfyjfzbYag10OaSnU-21" value="配额a" style="rounded=0;whiteSpace=wrap;html=1;" vertex="1" parent="1">
          <mxGeometry x="120" width="120" height="60" as="geometry" />
        </mxCell>
        <mxCell id="ODwOfyjfzbYag10OaSnU-22" value="配额b" style="rounded=0;whiteSpace=wrap;html=1;" vertex="1" parent="1">
          <mxGeometry x="320" width="120" height="60" as="geometry" />
        </mxCell>
        <mxCell id="ODwOfyjfzbYag10OaSnU-23" value="配额c" style="rounded=0;whiteSpace=wrap;html=1;" vertex="1" parent="1">
          <mxGeometry x="520" width="120" height="60" as="geometry" />
        </mxCell>
      </root>
    </mxGraphModel>
  </diagram>
</mxfile>
